<svg width="64" height="64" viewBox="0 0 64 64" fill="none" xmlns="http://www.w3.org/2000/svg">
  <rect x="1.5" y="1.5" width="61" height="61" rx="19.5" fill="#F4F5F7"/>
  <rect x="1.5" y="1.5" width="61" height="61" rx="19.5" stroke="#D0D5DD" stroke-width="2"/>
  <path d="M32.0003 23.6667C33.0908 23.6667 33.9748 22.7827 33.9748 21.6922V21.3333C33.9748 20.2428 33.0908 19.3589 32.0003 19.3589C30.9098 19.3589 30.0259 20.2428 30.0259 21.3333V21.6922C30.0259 22.7827 30.9098 23.6667 32.0003 23.6667Z" fill="#111827"/>
  <path d="M38.3416 26.2932C39.1127 27.0643 40.3631 27.0643 41.1342 26.2932L41.388 26.0394C42.1591 25.2683 42.1591 24.0179 41.388 23.2468C40.6169 22.4757 39.3665 22.4757 38.5954 23.2468L38.3416 23.5007C37.5705 24.2717 37.5705 25.5222 38.3416 26.2932Z" fill="#111827"/>
  <path d="M40.3337 32.0002C40.3337 33.0907 41.2177 33.9747 42.3082 33.9747H42.667C43.7575 33.9747 44.6415 33.0907 44.6415 32.0002C44.6415 30.9097 43.7575 30.0258 42.667 30.0258H42.3082C41.2177 30.0258 40.3337 30.9097 40.3337 32.0002Z" fill="#111827"/>
  <path d="M38.3416 37.7072C37.5705 38.4783 37.5705 39.7287 38.3416 40.4998L38.5954 40.7536C39.3665 41.5247 40.6169 41.5247 41.388 40.7536C42.1591 39.9826 42.1591 38.7321 41.388 37.9611L41.1342 37.7072C40.3631 36.9362 39.1127 36.9362 38.3416 37.7072Z" fill="#111827"/>
  <path d="M32.0003 40.3335C30.9098 40.3335 30.0259 41.2175 30.0259 42.308V42.6669C30.0259 43.7574 30.9098 44.6413 32.0003 44.6413C33.0908 44.6413 33.9748 43.7574 33.9748 42.6669V42.308C33.9748 41.2175 33.0908 40.3335 32.0003 40.3335Z" fill="#111827"/>
  <path d="M25.6584 37.7072C24.8873 36.9362 23.6369 36.9362 22.8658 37.7072L22.612 37.9611C21.8409 38.7321 21.8409 39.9826 22.612 40.7536C23.3831 41.5247 24.6335 41.5247 25.4046 40.7536L25.6584 40.4998C26.4295 39.7287 26.4295 38.4783 25.6584 37.7072Z" fill="#111827"/>
  <path d="M23.6663 32.0002C23.6663 30.9097 22.7823 30.0258 21.6918 30.0258H21.333C20.2425 30.0258 19.3585 30.9097 19.3585 32.0002C19.3585 33.0907 20.2425 33.9747 21.333 33.9747H21.6918C22.7823 33.9747 23.6663 33.0907 23.6663 32.0002Z" fill="#111827"/>
  <path d="M25.6584 26.2932C26.4295 25.5222 26.4295 24.2717 25.6584 23.5007L25.4046 23.2468C24.6335 22.4757 23.3831 22.4757 22.612 23.2468C21.8409 24.0179 21.8409 25.2683 22.612 26.0394L22.8658 26.2932C23.6369 27.0643 24.8873 27.0643 25.6584 26.2932Z" fill="#111827"/>
  <path fill-rule="evenodd" clip-rule="evenodd" d="M32.0001 24.2085C27.4758 24.2085 23.8076 27.8767 23.8076 32.401C23.8076 36.9252 27.4758 40.5935 32.0001 40.5935C36.5243 40.5935 40.1926 36.9252 40.1926 32.401C40.1926 27.8767 36.5243 24.2085 32.0001 24.2085ZM27.4151 32.401C27.4151 29.8691 29.4682 27.816 32.0001 27.816C34.5319 27.816 36.5851 29.8691 36.5851 32.401C36.5851 34.9328 34.5319 36.986 32.0001 36.986C29.4682 36.986 27.4151 34.9328 27.4151 32.401Z" fill="#111827"/>
  <path fill-rule="evenodd" clip-rule="evenodd" d="M31.9999 18C33.8402 18 35.3322 19.4919 35.3322 21.3322V21.4118C36.3217 21.6689 37.2554 22.0561 38.1167 22.5542L38.173 22.4979C39.4744 21.1965 41.5845 21.1965 42.8859 22.4979C44.1872 23.7992 44.1872 25.9094 42.8859 27.2107L42.8296 27.267C43.3277 28.1283 43.7149 29.0619 43.972 30.0515H44.0516C45.8919 30.0515 47.3838 31.5434 47.3838 33.3837C47.3838 35.224 45.8919 36.716 44.0516 36.716H43.972C43.7149 37.7055 43.3277 38.6392 42.8296 39.5005L42.8859 39.5568C44.1872 40.8582 44.1872 42.9683 42.8859 44.2697C41.5845 45.571 39.4744 45.571 38.173 44.2697L38.1167 44.2134C37.2554 44.7115 36.3217 45.0987 35.3322 45.3558V45.4354C35.3322 47.2757 33.8402 48.7676 31.9999 48.7676C30.1596 48.7676 28.6677 47.2757 28.6677 45.4354V45.3558C27.6781 45.0987 26.7445 44.7115 25.8832 44.2134L25.8269 44.2697C24.5255 45.571 22.4154 45.571 21.114 44.2697C19.8127 42.9683 19.8127 40.8582 21.114 39.5568L21.1703 39.5005C20.6722 38.6392 20.285 37.7055 20.0279 36.716H19.9483C18.108 36.716 16.6161 35.224 16.6161 33.3837C16.6161 31.5434 18.108 30.0515 19.9483 30.0515H20.0279C20.285 29.0619 20.6722 28.1283 21.1703 27.267L21.114 27.2107C19.8127 25.9094 19.8127 23.7992 21.114 22.4979C22.4154 21.1965 24.5255 21.1965 25.8269 22.4979L25.8832 22.5542C26.7445 22.0561 27.6781 21.6689 28.6677 21.4118V21.3322C28.6677 19.4919 30.1596 18 31.9999 18ZM31.9999 20.7177C31.6607 20.7177 31.3854 20.9929 31.3854 21.3322V22.4998C31.3854 23.1451 30.9355 23.7033 30.3072 23.8404C29.084 24.1071 27.9464 24.5787 26.9279 25.2215C26.3936 25.5586 25.6975 25.4791 25.2524 25.034L24.4267 24.2083C24.1868 23.9684 23.7977 23.9684 23.5578 24.2083C23.3179 24.4482 23.3179 24.8373 23.5578 25.0772L24.3835 25.9029C24.8286 26.348 24.9081 27.0441 24.571 27.5784C23.9282 28.5969 23.4566 29.7345 23.1899 30.9577C23.0528 31.586 22.4946 32.0358 21.8493 32.0358H20.6817C20.3424 32.0358 20.0672 32.3111 20.0672 32.6503C20.0672 32.9896 20.3424 33.2648 20.6817 33.2648H21.8493C22.4946 33.2648 23.0528 33.7147 23.1899 34.343C23.4566 35.5662 23.9282 36.7038 24.571 37.7223C24.9081 38.2566 24.8286 38.9527 24.3835 39.3978L23.5578 40.2235C23.3179 40.4634 23.3179 40.8525 23.5578 41.0924C23.7977 41.3323 24.1868 41.3323 24.4267 41.0924L25.2524 40.2667C25.6975 39.8216 26.3936 39.7421 26.9279 40.0792C27.9464 40.722 29.084 41.1936 30.3072 41.4603C30.9355 41.5974 31.3854 42.1556 31.3854 42.8009V43.9685C31.3854 44.3078 31.6607 44.583 31.9999 44.583C32.3392 44.583 32.6144 44.3078 32.6144 43.9685V42.8009C32.6144 42.1556 33.0643 41.5974 33.6926 41.4603C34.9158 41.1936 36.0534 40.722 37.0719 40.0792C37.6062 39.7421 38.3023 39.8216 38.7474 40.2667L39.5731 41.0924C39.813 41.3323 40.2021 41.3323 40.442 41.0924C40.6819 40.8525 40.6819 40.4634 40.442 40.2235L39.6163 39.3978C39.1712 38.9527 39.0917 38.2566 39.4288 37.7223C40.0716 36.7038 40.5432 35.5662 40.8099 34.343C40.947 33.7147 41.5052 33.2648 42.1505 33.2648H43.3181C43.6574 33.2648 43.9326 32.9896 43.9326 32.6503C43.9326 32.3111 43.6574 32.0358 43.3181 32.0358H42.1505C41.5052 32.0358 40.947 31.586 40.8099 30.9577C40.5432 29.7345 40.0716 28.5969 39.4288 27.5784C39.0917 27.0441 39.1712 26.348 39.6163 25.9029L40.442 25.0772C40.6819 24.8373 40.6819 24.4482 40.442 24.2083C40.2021 23.9684 39.813 23.9684 39.5731 24.2083L38.7474 25.034C38.3023 25.4791 37.6062 25.5586 37.0719 25.2215C36.0534 24.5787 34.9158 24.1071 33.6926 23.8404C33.0643 23.7033 32.6144 23.1451 32.6144 22.4998V21.3322C32.6144 20.9929 32.3392 20.7177 31.9999 20.7177Z" fill="#111827"/>
</svg>
